# xmcd CD database file
#
# Track frame offsets:
#	150
#	26040
#	45665
#	78116
#	93645
#	114866
#	150992
#	191369
#	205386
#	215887
#
# Disc length: 2933 seconds
#
# Revision: 0
# Processed by: cddbd v1.5.2PL0 Copyright (c) Steve Scherf et al.
# Submitted via: CDex 1.70beta2
#
DISCID=7d0b730a
DTITLE=Chris Biscoe Quartet - Gone In The Air
DYEAR=2008
DGENRE=Jazz
TTITLE0=Serene
TTITLE1=Les
TTITLE2=Out To Lunch
TTITLE3=245
TTITLE4=Jitterbug Waltz
TTITLE5=Potsa Lotsa
TTITLE6=Stolen Moments
TTITLE7=Miss Ann
TTITLE8=Hat And Beard
TTITLE9=Gone In The Air
EXTD=YEAR: 2008
EXTT0=
EXTT1=
EXTT2=
EXTT3=
EXTT4=
EXTT5=
EXTT6=
EXTT7=
EXTT8=
EXTT9=
PLAYORDER=
